<?xml version="1.0" encoding="UTF-8" standalone="no"?>
<!-- Created with Inkscape (http://www.inkscape.org/) -->

<svg
   xmlns:dc="http://purl.org/dc/elements/1.1/"
   xmlns:cc="http://creativecommons.org/ns#"
   xmlns:rdf="http://www.w3.org/1999/02/22-rdf-syntax-ns#"
   xmlns:svg="http://www.w3.org/2000/svg"
   xmlns="http://www.w3.org/2000/svg"
   xmlns:sodipodi="http://sodipodi.sourceforge.net/DTD/sodipodi-0.dtd"
   xmlns:inkscape="http://www.inkscape.org/namespaces/inkscape"
   width="400"
   height="400"
   viewBox="0 0 105.83333 105.83334"
   version="1.1"
   id="svg8"
   inkscape:version="0.92.4 (5da689c313, 2019-01-14)"
   sodipodi:docname="rabbitwall.svg">
  <defs
     id="defs2" />
  <sodipodi:namedview
     id="base"
     pagecolor="#ffffff"
     bordercolor="#666666"
     borderopacity="1.0"
     inkscape:pageopacity="0.0"
     inkscape:pageshadow="2"
     inkscape:zoom="0.28385417"
     inkscape:cx="1920"
     inkscape:cy="1080"
     inkscape:document-units="mm"
     inkscape:current-layer="layer1"
     showgrid="false"
     units="px"
     inkscape:window-width="1602"
     inkscape:window-height="986"
     inkscape:window-x="78"
     inkscape:window-y="27"
     inkscape:window-maximized="1" />
  <metadata
     id="metadata5">
    <rdf:RDF>
      <cc:Work
         rdf:about="">
        <dc:format>image/svg+xml</dc:format>
        <dc:type
           rdf:resource="http://purl.org/dc/dcmitype/StillImage" />
        <dc:title></dc:title>
      </cc:Work>
    </rdf:RDF>
  </metadata>
  <g
     inkscape:label="Layer 1"
     inkscape:groupmode="layer"
     id="layer1"
     transform="translate(0,-191.16641)">
    <rect
       style="fill:#222233;fill-opacity:1;stroke:#ffffff;stroke-width:0.69329613;stroke-opacity:1"
       id="rect837"
       width="1015.3066"
       height="570.8067"
       x="0.34664807"
       y="-274.15363" />
    <g
       id="g841"
       transform="translate(-416.65321,219.97798)">
      <path
         style="fill:#f1f4e0;stroke-width:0.26458332"
         d="m 464.49001,50.277846 c -0.46257,-0.364649 -1.0891,-1.06434 -1.39229,-1.554877 l -0.55123,-0.891911 0.0694,-41.7677331 0.0694,-41.7677069 0.64538,-1.311413 c 0.95096,-1.932411 2.20662,-3.174579 4.19758,-4.15249 1.63944,-0.805259 1.96903,-0.87073 4.41746,-0.877477 2.42655,-0.0067 2.79167,0.06175 4.40566,0.825812 2.07354,0.981625 3.59005,2.408327 4.47828,4.213048 l 0.64106,1.30252 0.0745,15.173989 0.0745,15.1739838 0.71927,-0.1817159 c 2.37387,-0.599731 5.39557,-0.9290843 8.52448,-0.9290843 3.12891,0 6.15061,0.3293533 8.52448,0.9290843 l 0.71927,0.1817159 0.0745,-15.1739838 0.0745,-15.173989 0.64106,-1.30252 c 1.50018,-3.048122 4.55692,-4.89331 8.47645,-5.116793 2.20954,-0.125982 2.43134,-0.08747 4.27932,0.742979 2.36942,1.064776 3.62688,2.199568 4.62918,4.177609 l 0.7594,1.498725 0.0694,41.7677069 0.0694,41.7677331 -0.55747,0.901991 c -0.3066,0.496121 -0.94438,1.197134 -1.41727,1.557814 l -0.85979,0.655796 -25.50732,-0.0029 -25.50731,-0.0029 -0.84106,-0.66294 z M 476.6505,39.734464 c 3.07829,-1.317122 3.78904,-5.339238 1.34702,-7.62254 -3.00474,-2.809398 -8.03624,-0.707813 -8.03624,3.35661 0,3.289962 3.6018,5.586942 6.68922,4.26593 z m 32.27917,0 c 4.65883,-1.993397 3.16383,-8.896138 -1.92673,-8.896138 -4.15583,0 -6.29703,4.769353 -3.4889,7.771289 1.3407,1.433221 3.59876,1.902222 5.41563,1.124849 z M 471.3505,-0.4495261 c 0.83685,-0.6179873 2.44419,-1.6108362 3.57187,-2.2063339 l 2.05036,-1.082728 0.0684,-14.538542 0.0684,-14.538542 -0.7502,-1.179772 c -2.07085,-3.256592 -6.52738,-3.078326 -8.2758,0.331042 -0.47792,0.931896 -0.50342,1.765765 -0.50342,16.453088 0,9.8115277 0.0981,15.7294631 0.26815,16.1767677 0.27559,0.724826 1.24614,1.6866129 1.71622,1.7006887 0.14552,0.00423 0.94927,-0.4976812 1.7861,-1.1156685 z m 41.66814,0.6140185 c 0.32544,-0.2715683 0.71239,-0.8111331 0.8599,-1.1990387 0.17005,-0.4473046 0.26815,-6.36524 0.26815,-16.1767677 0,-14.833696 -0.0214,-15.513259 -0.51757,-16.485952 -1.00119,-1.96251 -3.21271,-3.051419 -5.18957,-2.555259 -1.25185,0.314198 -2.74124,1.459407 -3.28552,2.5263 -0.52268,1.024533 -0.53506,1.434626 -0.46844,15.51999 l 0.0684,14.467647 2.05037,1.0827279 c 1.12768,0.5954978 2.73502,1.5883467 3.57187,2.206334 0.83683,0.6179873 1.64058,1.1200342 1.7861,1.1156685 0.14552,-0.0045 0.53086,-0.2301081 0.85632,-0.50165 z"
         id="path832"
         inkscape:connector-curvature="0" />
      <path
         style="fill:#fe53e1;fill-opacity:1;stroke-width:0.26458332"
         d="m 448.84073,51.657198 c -1.11506,-1.186921 -0.88689,-1.546648 4.25548,-6.70896 5.19062,-5.210757 5.6058,-5.470816 6.76478,-4.237117 1.13419,1.207294 0.90424,1.56927 -4.27421,6.727693 -5.19686,5.176784 -5.60559,5.432372 -6.74605,4.218384 z m 77.29921,-4.218384 c -5.21076,-5.190623 -5.47082,-5.605807 -4.23712,-6.764788 1.2073,-1.134189 1.56927,-0.90424 6.72769,4.274212 5.17679,5.196866 5.43238,5.605594 4.21839,6.746054 -1.18692,1.11506 -1.54665,0.886884 -6.70896,-4.255478 z m -53.42133,-7.841801 c -3.52555,-1.601232 -3.59588,-6.40715 -0.11944,-8.163375 1.37973,-0.697018 2.55627,-0.753718 3.90935,-0.188356 1.31205,0.548216 1.90209,1.112334 2.48015,2.371169 0.62506,1.361202 0.624,2.551562 -0.003,3.780843 -0.61884,1.212532 -1.21989,1.769348 -2.47674,2.294493 -1.28186,0.53557 -2.46727,0.505936 -3.78992,-0.09477 z m 32.44013,0.08276 c -1.20925,-0.524484 -1.80914,-1.09093 -2.41728,-2.282481 -0.62741,-1.229281 -0.62847,-2.419641 -0.003,-3.780843 0.57806,-1.258835 1.16811,-1.822953 2.48015,-2.371169 1.35308,-0.565362 2.52963,-0.508662 3.90935,0.188356 3.47644,1.756225 3.40611,6.562143 -0.11943,8.163375 -1.30114,0.590947 -2.61276,0.619152 -3.84937,0.08276 z m -52.06253,-7.605527 c -5.17679,-5.196867 -5.43238,-5.605595 -4.21839,-6.746055 1.18692,-1.11506 1.54665,-0.886883 6.70896,4.255479 5.21076,5.190622 5.47082,5.605806 4.23712,6.764787 -1.2073,1.134189 -1.56927,0.90424 -6.72769,-4.274211 z m 68.76952,4.237117 c -1.13419,-1.207294 -0.90424,-1.569271 4.27421,-6.727693 5.19686,-5.176785 5.60559,-5.432372 6.74605,-4.218385 1.11506,1.186921 0.88689,1.546649 -4.25548,6.708961 -5.19062,5.210757 -5.6058,5.470816 -6.76478,4.237117 z M 468.70808,0.1644924 c -0.32544,-0.2715683 -0.71239,-0.8111331 -0.8599,-1.1990387 -0.17005,-0.4473046 -0.26815,-6.36524 -0.26815,-16.1767677 0,-14.687323 0.0254,-15.521192 0.50342,-16.453088 1.74842,-3.409368 6.20495,-3.587634 8.2758,-0.331042 l 0.7502,1.179772 -0.0684,14.538542 -0.0684,14.538542 -2.05036,1.0827279 c -1.12768,0.5954978 -2.73502,1.5883467 -3.57187,2.206334 -0.83683,0.6179873 -1.64058,1.1200342 -1.7861,1.1156685 -0.14552,-0.0045 -0.53086,-0.2301081 -0.85632,-0.50165 z m 41.66814,-0.6140185 c -0.83685,-0.6179873 -2.44419,-1.6108362 -3.57187,-2.2063339 l -2.05037,-1.082728 -0.0684,-14.538542 -0.0684,-14.538542 0.7502,-1.179772 c 2.07085,-3.256592 6.52738,-3.078326 8.2758,0.331042 0.47792,0.931896 0.50342,1.765765 0.50342,16.453088 0,9.8115277 -0.0981,15.7294631 -0.26815,16.1767677 -0.27559,0.724826 -1.24614,1.6866129 -1.71622,1.7006887 -0.14552,0.00423 -0.94927,-0.4976812 -1.7861,-1.1156685 z"
         id="path828"
         inkscape:connector-curvature="0" />
    </g>
  </g>
</svg>
