<?xml version="1.0" encoding="UTF-8" standalone="no"?>
<svg
   xmlns:dc="http://purl.org/dc/elements/1.1/"
   xmlns:cc="http://creativecommons.org/ns#"
   xmlns:rdf="http://www.w3.org/1999/02/22-rdf-syntax-ns#"
   xmlns:svg="http://www.w3.org/2000/svg"
   xmlns="http://www.w3.org/2000/svg"
   xmlns:sodipodi="http://sodipodi.sourceforge.net/DTD/sodipodi-0.dtd"
   xmlns:inkscape="http://www.inkscape.org/namespaces/inkscape"
   version="1.1"
   id="svg96"
   width="546.1333"
   height="136.53333"
   viewBox="0 0 546.1333 136.53333"
   sodipodi:docname="koyuspace-logo.svg"
   inkscape:export-filename="/home/koyu/MEGA/private/koyuspace-logo_big.png"
   inkscape:export-xdpi="1926.5626"
   inkscape:export-ydpi="1926.5626"
   inkscape:version="1.0.1 (3bc2e813f5, 2020-09-07)">
  <metadata
     id="metadata102">
    <rdf:RDF>
      <cc:Work
         rdf:about="">
        <dc:format>image/svg+xml</dc:format>
        <dc:type
           rdf:resource="http://purl.org/dc/dcmitype/StillImage" />
        <dc:title />
      </cc:Work>
    </rdf:RDF>
  </metadata>
  <defs
     id="defs100" />
  <sodipodi:namedview
     pagecolor="#ffffff"
     bordercolor="#666666"
     borderopacity="1"
     objecttolerance="10"
     gridtolerance="10"
     guidetolerance="10"
     inkscape:pageopacity="0"
     inkscape:pageshadow="2"
     inkscape:window-width="1280"
     inkscape:window-height="987"
     id="namedview98"
     showgrid="false"
     inkscape:zoom="1.5575858"
     inkscape:cx="261.03646"
     inkscape:cy="76.982702"
     inkscape:window-x="0"
     inkscape:window-y="26"
     inkscape:window-maximized="1"
     inkscape:current-layer="svg96"
     inkscape:document-rotation="0" />
  <g
     transform="matrix(4.1036261,0,0,4.1036261,46.50273,-1080.6253)"
     id="layer1"
     inkscape:label="Ebene 1">
    <ellipse
       ry="10.220444"
       rx="10.220443"
       cy="280.06665"
       cx="16.933332"
       id="path12"
       style="fill:none;stroke:#fe53e1;stroke-width:3.37161303;stroke-miterlimit:4;stroke-dasharray:none;stroke-opacity:1" />
  </g>
  <g
     aria-label="koyu.space"
     id="text160"
     style="font-style:normal;font-weight:normal;font-size:51.4275px;line-height:1.25;font-family:sans-serif;letter-spacing:0px;word-spacing:0px;fill:#fe53e1;fill-opacity:1;stroke:none;stroke-width:1.28569">
    <path
       d="m 200.96166,90.189347 q 0,0.565702 -2.87994,0.925695 -2.87994,0.308565 -6.01702,0.308565 -3.13707,0 -4.06277,-0.257138 -0.92569,-0.308565 -0.92569,-0.977122 V 54.601524 q 0,-1.131405 2.87994,-2.211382 2.93136,-1.079978 6.27415,-1.079978 4.73133,0 4.73133,2.365665 V 72.90971 h 0.66856 q 2.46852,-11.776895 3.65135,-11.776895 2.98279,0 7.19985,1.388542 4.21705,1.388543 4.21705,3.08565 0,1.23426 -2.0571,4.731329 -2.0571,3.497069 -4.26848,5.708451 7.35413,8.794101 7.35413,10.439781 0,1.542825 -4.6799,3.754207 -4.6799,2.211382 -6.58272,2.211382 -0.92569,0 -1.95424,-2.211382 -1.02855,-2.26281 -2.21139,-6.737002 l -1.33711,1.594253 z"
       style="font-style:normal;font-variant:normal;font-weight:normal;font-stretch:normal;font-family:'Titan One';-inkscape-font-specification:'Titan One';fill:#fe53e1;fill-opacity:1;stroke-width:1.28569"
       id="path42" />
    <path
       d="m 235.62377,91.886454 q -3.85706,0 -6.63414,-0.668557 -2.77709,-0.668557 -5.0399,-2.365665 -4.6799,-3.394214 -4.6799,-12.651162 0,-8.228399 4.78276,-11.776896 4.47419,-3.291359 11.57118,-3.291359 3.03422,0 5.19418,0.308565 2.15995,0.257138 4.37133,1.182832 2.26281,0.925695 3.59993,2.519947 1.38854,1.594253 2.26281,4.422765 0.87427,2.777084 0.87427,6.634146 0,7.816978 -4.42277,11.776895 -4.42276,3.908489 -11.87975,3.908489 z m -1.79996,-10.02836 q 0.35999,1.851389 0.71998,2.211382 0.41142,0.359992 1.02855,0.359992 0.66856,0 1.02855,-0.359992 0.41142,-0.359993 0.71999,-2.211382 0.35999,-1.85139 0.35999,-4.628474 0,-2.828512 -0.15428,-4.31991 -0.10286,-1.542824 -0.30857,-2.365664 -0.15428,-0.82284 -0.46284,-1.285687 -0.46285,-0.668558 -1.13141,-0.668558 -0.61713,0 -1.02855,0.41142 -0.41142,0.359993 -0.77141,2.26281 -0.35999,1.851389 -0.35999,5.297031 0,3.445642 0.35999,5.297032 z"
       style="font-style:normal;font-variant:normal;font-weight:normal;font-stretch:normal;font-family:'Titan One';-inkscape-font-specification:'Titan One';fill:#fe53e1;fill-opacity:1;stroke-width:1.28569"
       id="path44" />
    <path
       d="m 272.34297,88.08082 v -3.034222 h -0.41142 q -0.25714,0.257138 -0.77141,0.668557 -0.51428,0.41142 -2.41709,1.079978 -1.90282,0.668557 -4.26849,0.668557 -2.31423,0 -4.11419,-0.719985 -1.74854,-0.771412 -2.77709,-2.005672 -1.02855,-1.285687 -1.59425,-3.394214 -0.97712,-3.342787 -0.97712,-9.462658 v -7.096994 q 0,-1.079977 3.03422,-2.108527 3.03422,-1.079977 6.37701,-1.079977 4.47419,0 4.47419,2.314237 v 6.479863 q 0,10.285498 1.64568,10.285498 0.97712,0 0.97712,-1.388542 V 64.784167 q 0,-1.079977 3.23993,-2.108527 3.23993,-1.079977 6.94271,-1.079977 3.70278,0 3.70278,2.005672 v 24.325203 q 0,11.46833 -15.5311,11.46833 -8.17697,0 -11.10834,-1.594252 -1.28568,-0.719985 -1.28568,-1.491398 0,-1.234259 1.02855,-4.165626 1.02855,-2.87994 1.90281,-2.87994 0.20571,0 1.43997,0.308565 3.80564,1.02855 6.32558,1.02855 2.57138,0 3.34279,-0.565702 0.82284,-0.565703 0.82284,-1.954245 z"
       style="font-style:normal;font-variant:normal;font-weight:normal;font-stretch:normal;font-family:'Titan One';-inkscape-font-specification:'Titan One';fill:#fe53e1;fill-opacity:1;stroke-width:1.28569"
       id="path46" />
    <path
       d="m 299.34236,91.886454 q -5.75988,0 -8.07411,-2.982794 -2.26281,-2.982795 -2.26281,-10.388353 V 64.527029 q 0,-1.028549 3.03422,-1.954244 3.03422,-0.977122 6.37701,-0.977122 4.47419,0 4.47419,2.314237 v 13.062582 q 0,3.908489 0.30856,5.708452 0.30857,1.748534 1.54283,1.748534 1.64568,0 1.64568,-1.388542 V 64.527029 q 0,-1.079977 3.1885,-2.005672 3.18851,-0.925694 6.94271,-0.925694 3.75421,0 3.75421,2.005672 v 26.485157 q 0,0.719985 -3.23993,1.02855 -3.23993,0.308565 -6.37701,0.308565 -3.13708,0 -3.1885,-0.82284 l -0.51428,-3.342787 h -0.41142 q -0.46285,1.85139 -1.85139,3.034222 -0.71998,0.61713 -2.15995,1.131405 -1.38855,0.462847 -3.18851,0.462847 z"
       style="font-style:normal;font-variant:normal;font-weight:normal;font-stretch:normal;font-family:'Titan One';-inkscape-font-specification:'Titan One';fill:#fe53e1;fill-opacity:1;stroke-width:1.28569"
       id="path48" />
    <path
       d="m 335.08444,86.589423 q 0,3.034222 -1.38854,4.165626 -1.38854,1.131405 -4.1142,1.131405 -2.67423,0 -4.06277,-1.131405 -1.38854,-1.131404 -1.38854,-4.165626 0,-3.034222 1.38854,-4.011344 1.43997,-1.02855 4.1142,-1.02855 2.67423,0 4.06277,1.02855 1.38854,0.977122 1.38854,4.011344 z"
       style="font-style:normal;font-variant:normal;font-weight:normal;font-stretch:normal;font-family:'Titan One';-inkscape-font-specification:'Titan One';fill:#fe53e1;fill-opacity:1;stroke-width:1.28569"
       id="path50" />
    <path
       d="m 352.92975,91.886454 q -8.53696,0 -12.49688,-1.645679 -2.00567,-0.874268 -2.00567,-1.697108 0,-2.108527 1.23426,-4.937039 1.23426,-2.828512 2.15995,-2.828512 0.51428,0 3.44564,1.131405 2.9828,1.131405 4.98847,1.131405 2.0571,0 2.67423,-0.257137 0.66856,-0.257138 0.66856,-0.977123 0,-0.771412 -1.02855,-1.182832 -1.02855,-0.462847 -2.57138,-0.61713 -1.54282,-0.154282 -3.34278,-0.61713 -1.74854,-0.462847 -3.29136,-1.182832 -1.54283,-0.719985 -2.57138,-2.365665 -1.02855,-1.697107 -1.02855,-3.599924 0,-1.954245 0.10286,-2.879939 0.10285,-0.977123 0.82284,-2.67423 0.77141,-1.748535 2.10852,-2.828512 1.38855,-1.079977 4.21706,-1.954245 2.87994,-0.874267 6.42843,-0.874267 3.5485,0 5.91417,0.257138 2.41709,0.20571 3.7542,0.565702 1.38854,0.359992 2.26281,0.82284 1.4914,0.771412 1.4914,1.697107 0,2.005672 -1.43997,4.628474 -1.43997,2.622802 -2.31424,2.622802 -0.82284,0 -3.65135,-0.874267 -2.82851,-0.925695 -4.16563,-0.925695 -2.15995,0 -2.15995,1.23426 0,0.771412 1.43997,1.182832 1.4914,0.359992 3.5485,0.771412 2.0571,0.41142 4.1142,1.182833 2.10852,0.719985 3.54849,2.674229 1.4914,1.954245 1.4914,4.937039 0,10.079788 -14.34827,10.079788 z"
       style="font-style:normal;font-variant:normal;font-weight:normal;font-stretch:normal;font-family:'Titan One';-inkscape-font-specification:'Titan One';fill:#fe53e1;fill-opacity:1;stroke-width:1.28569"
       id="path52" />
    <path
       d="M 370.36358,97.646333 V 64.938449 q 0,-1.079977 2.87994,-2.211382 2.87993,-1.131404 6.22272,-1.131404 1.54283,0 2.41709,0.359992 0.87427,0.359992 1.07998,0.719985 0.20571,0.359992 0.77141,3.085649 h 0.41142 q 0.10286,-0.462847 0.9257,-1.439969 0.82284,-0.977123 1.64568,-1.594253 0.87427,-0.61713 2.46852,-1.079977 1.59425,-0.514275 3.70278,-0.514275 2.15995,0 3.90849,0.977122 1.74853,0.925695 2.57137,2.211383 0.87427,1.234259 1.33712,3.188504 0.51427,1.902817 0.5657,3.085649 0.10285,1.131405 0.10285,3.342787 0,2.159955 -0.15428,4.319909 -0.15428,2.108527 -0.5657,4.31991 -0.41142,2.211382 -1.18283,3.805634 -0.77142,1.594252 -1.95425,2.879939 -2.36566,2.571375 -6.94271,2.571375 -1.64568,0 -2.93137,-0.462848 -1.23426,-0.514275 -1.85139,-1.182832 -1.28568,-1.388542 -1.49139,-2.468519 l -0.0514,-0.514275 h -0.41142 l 0.71998,4.628474 v 5.811306 q 0,0.565703 -2.98279,0.874268 -2.93137,0.359992 -6.06844,0.359992 -3.08565,0 -4.1142,-0.308565 -1.02855,-0.257137 -1.02855,-0.925695 z M 387.4375,76.355352 q 0,-4.371336 -0.46284,-6.119871 -0.46285,-1.748535 -1.38855,-1.748535 -0.92569,0 -1.33711,1.02855 v 13.474002 q 0,1.337115 1.38854,1.337115 1.79996,0 1.79996,-7.971261 z"
       style="font-style:normal;font-variant:normal;font-weight:normal;font-stretch:normal;font-family:'Titan One';-inkscape-font-specification:'Titan One';fill:#fe53e1;fill-opacity:1;stroke-width:1.28569"
       id="path54" />
    <path
       d="m 414.23113,91.886454 q -4.6799,0 -7.35413,-2.211382 -1.07998,-0.925695 -1.90282,-2.725657 -0.77141,-1.799962 -0.77141,-4.217054 0,-2.417092 1.1314,-4.217054 1.18283,-1.799962 2.82851,-2.777085 1.64568,-0.977122 3.85707,-1.594252 3.34278,-0.874267 7.35413,-0.874267 h 1.6971 q 0,-2.108527 -1.43997,-2.982795 -0.61713,-0.359992 -1.90281,-0.359992 -1.23426,0 -3.03422,0.668557 -1.74854,0.668558 -2.93137,1.388543 -1.18283,0.668557 -1.59425,0.668557 -0.9257,0 -2.51995,-2.417092 -1.59425,-2.46852 -1.59425,-4.474192 0,-0.668557 1.90281,-1.748534 1.90282,-1.079978 5.34846,-1.954245 3.49707,-0.925695 6.78843,-0.925695 3.29136,0 5.65703,0.565703 2.41709,0.514274 3.90848,1.285687 1.54283,0.771412 2.57138,2.057099 1.07998,1.285688 1.59425,2.314237 0.5657,1.02855 0.82284,2.67423 0.35999,1.902817 0.35999,4.679902 v 15.479674 q 0,0.565702 -2.77708,0.925695 -2.72566,0.308565 -5.45131,0.308565 -2.67423,0 -3.49707,-0.154283 -0.77142,-0.154282 -0.9257,-0.359992 -0.15428,-0.20571 -0.25714,-0.719985 l -0.41142,-2.931367 h -0.41142 q -1.28568,4.628474 -7.04556,4.628474 z m 6.89128,-8.536963 v -6.017016 q -1.33711,0 -2.15995,1.131404 -0.82284,1.131405 -0.82284,2.571375 0,3.394214 1.54282,3.394214 0.66856,0 1.02855,-0.308565 0.41142,-0.359992 0.41142,-0.771412 z"
       style="font-style:normal;font-variant:normal;font-weight:normal;font-stretch:normal;font-family:'Titan One';-inkscape-font-specification:'Titan One';fill:#fe53e1;fill-opacity:1;stroke-width:1.28569"
       id="path56" />
    <path
       d="m 445.24188,90.54934 q -1.23426,-0.565703 -2.67423,-1.697108 -1.38854,-1.131404 -2.31424,-2.674229 -2.15995,-3.702779 -2.15995,-9.668368 0,-3.70278 1.18283,-6.582719 1.18283,-2.931367 2.87994,-4.525619 1.69711,-1.594252 3.90849,-2.622802 3.54849,-1.64568 7.09699,-1.64568 5.96559,0 8.27983,0.925695 2.36566,0.925695 2.36566,3.137077 0,2.211382 -0.82284,4.731329 -0.77141,2.468519 -2.0571,2.468519 -0.41142,0 -2.51994,-0.874267 -2.0571,-0.874267 -3.59993,-0.874267 -1.4914,0 -2.31424,1.23426 -0.77141,1.182832 -0.77141,4.679901 0,3.445642 0.71999,4.731329 0.71998,1.23426 2.21138,1.23426 1.54282,0 3.80563,-1.02855 2.26281,-1.02855 2.51995,-1.02855 0.97712,0 1.85139,2.314238 0.92569,2.314237 0.92569,4.114199 0,2.777084 -2.87993,3.908489 -2.87994,1.079977 -7.81698,1.079977 -4.88561,0 -7.81698,-1.337114 z"
       style="font-style:normal;font-variant:normal;font-weight:normal;font-stretch:normal;font-family:'Titan One';-inkscape-font-specification:'Titan One';fill:#fe53e1;fill-opacity:1;stroke-width:1.28569"
       id="path58" />
    <path
       d="m 480.41826,79.800994 q 0,3.342787 3.1885,3.342787 1.85139,0 4.83419,-1.23426 2.98279,-1.285687 3.13707,-1.285687 0.97712,0 2.57138,2.931367 1.59425,2.931367 1.59425,4.319909 0,2.005672 -4.1142,3.034222 -4.1142,1.02855 -8.07412,1.02855 -3.90849,0 -6.58271,-0.61713 -2.62281,-0.61713 -4.31991,-1.542825 -1.64568,-0.977122 -2.93137,-2.365664 -1.23426,-1.388543 -1.85139,-2.622802 -0.61713,-1.285688 -0.97712,-2.828512 -0.51428,-2.26281 -0.51428,-4.679902 0,-9.359803 4.88561,-12.9083 2.4171,-1.799962 5.39989,-2.519947 2.98279,-0.719985 7.04557,-0.719985 13.01115,0 13.01115,9.051238 0,9.616941 -14.60541,9.616941 z m -0.10286,-7.508413 v 3.394214 q 1.4914,0 2.41709,-1.182832 0.97713,-1.182833 0.97713,-2.87994 0,-3.085649 -1.59426,-3.085649 -1.79996,0 -1.79996,3.754207 z"
       style="font-style:normal;font-variant:normal;font-weight:normal;font-stretch:normal;font-family:'Titan One';-inkscape-font-specification:'Titan One';fill:#fe53e1;fill-opacity:1;stroke-width:1.28569"
       id="path60" />
  </g>
</svg>
