<?xml version="1.0" encoding="UTF-8" standalone="no"?>
<svg
   xmlns:dc="http://purl.org/dc/elements/1.1/"
   xmlns:cc="http://creativecommons.org/ns#"
   xmlns:rdf="http://www.w3.org/1999/02/22-rdf-syntax-ns#"
   xmlns:svg="http://www.w3.org/2000/svg"
   xmlns="http://www.w3.org/2000/svg"
   xmlns:sodipodi="http://sodipodi.sourceforge.net/DTD/sodipodi-0.dtd"
   xmlns:inkscape="http://www.inkscape.org/namespaces/inkscape"
   height="128"
   viewBox="0.043 -0.002 73.6022 91.8342"
   width="128"
   version="1.1"
   id="svg10"
   sodipodi:docname="pb-icon_melt.svg"
   inkscape:version="0.92.4 5da689c313, 2019-01-14">
  <metadata
     id="metadata16">
    <rdf:RDF>
      <cc:Work
         rdf:about="">
        <dc:format>image/svg+xml</dc:format>
        <dc:type
           rdf:resource="http://purl.org/dc/dcmitype/StillImage" />
        <dc:title></dc:title>
      </cc:Work>
    </rdf:RDF>
  </metadata>
  <defs
     id="defs14" />
  <sodipodi:namedview
     pagecolor="#ffffff"
     bordercolor="#666666"
     borderopacity="1"
     objecttolerance="10"
     gridtolerance="10"
     guidetolerance="10"
     inkscape:pageopacity="0"
     inkscape:pageshadow="2"
     inkscape:window-width="1632"
     inkscape:window-height="986"
     id="namedview12"
     showgrid="false"
     inkscape:zoom="5.6953125"
     inkscape:cx="64"
     inkscape:cy="64"
     inkscape:window-x="1328"
     inkscape:window-y="73"
     inkscape:window-maximized="1"
     inkscape:current-layer="svg10"
     units="px" />
  <path
     style="fill:#fe53e1;fill-opacity:1;stroke:none;stroke-width:6.35210133;stroke-miterlimit:4;stroke-dasharray:none;stroke-opacity:1"
     d="m 36.731429,13.629846 c -7.89933,0.0322 -15.36204,3.69441 -20.22939,10.18046 -5.11969,6.82231 -6.44228,15.89529 -3.49313,23.96289 0.5678,1.55326 1.79087,3.91439 2.86133,5.52366 1.36132,2.04653 1.50955,2.46695 1.66966,4.73551 0.33808,4.78997 0.48715,6.29432 0.67317,6.7915 0.88433,2.36359 3.94297,3.1127 5.8124,1.42378 0.8188,-0.73973 1.14298,-1.58705 1.1433,-2.98756 1.6e-4,-1.09862 0.17653,-1.47092 0.71497,-1.50885 0.55415,-0.0391 1.22228,0.39683 3.19463,2.08399 0.91785,0.78514 2.22457,1.82354 2.90376,2.30761 2.12521,1.51468 3.23521,2.7238 4.12217,4.48983 0.5897,1.17416 0.79388,2.03519 0.79388,3.34972 0,1.2453 0.15262,1.86679 0.6388,2.59932 0.47785,0.71997 1.14799,1.2095 2.07891,1.51902 0.57233,0.1903 1.64787,0.0992 2.28809,-0.1939 0.741177,-0.33933 1.490353,-1.07984 1.824528,-1.80332 l 0.274106,-0.59319 0.0488,-5.05438 c 0.04719,-4.88608 0.05558,-5.07067 0.252888,-5.5542 0.600747,-1.47225 1.578488,-2.38351 2.93686,-2.73723 1.452459,-0.37822 2.832486,-0.0176 3.939505,1.02938 0.978324,0.92526 1.345273,1.80627 1.442016,3.46214 0.06109,1.04554 0.09358,1.19787 0.331387,1.55722 0.684975,1.03507 2.113912,0.99579 2.869395,-0.0787 l 0.290015,-0.41242 0.05473,-5.59453 c 0.06652,-6.8099 -0.01732,-6.35277 1.611316,-8.77429 3.740732,-5.56189 5.166371,-11.97687 4.106045,-18.47615 -1.667071,-10.21834 -9.587205,-18.55682 -19.642141,-20.67977 -1.8429,-0.38912 -3.68908,-0.57495 -5.512,-0.56753 z m 0.12963,6.98584 c 1.22602,0.0111 2.45991,0.14462 3.69616,0.40097 5.925587,1.22871 11.062314,5.65778 13.210033,11.38995 2.332242,6.22467 1.148783,13.13789 -3.118039,18.21413 -3.843484,4.57259 -9.715494,6.98119 -15.667844,6.42659 -8.57873,-0.79927 -15.5119,-7.63828 -16.44476,-16.22135 -0.91949,-8.45994 4.25058,-16.5607 12.28355,-19.24648 1.97568,-0.66056 3.99751,-0.98228 6.0409,-0.96381 z"
     id="path4535"
     inkscape:connector-curvature="0" />
</svg>
